# xmcd
#
# Track frame offsets:
#	150
#	13958
#	29601
#	43608
#	55351
#	70143
#	84302
#	99701
#	113082
#	123721
#	135677
#	148672
#	163459
#	176489
#	188306
#	203079
#	213934
#	227363
#	241989
#	254899
#
# Disc length: 3595 seconds
#
# Revision: 0
# Processed by: cddbd v1.5.2PL0 Copyright (c) Steve Scherf et al.
# Submitted via: EasyCDDAExtractor 16.0.6.1
#
DISCID=250e0914
DTITLE=Συλλογικός δίσκος - Τραγούδια 45 στροφές-Καλδάρας Απόστολος 3
DYEAR=2001
DGENRE=Λαϊκή
TTITLE0=Γαβαλάς Πάνος-Γκίκα Βούλα - Κανείς απ' της αγάπης σου [Α. Καλδάρας-Λάκ
TTITLE0=ης Τσώλης]
TTITLE1=Λύδια Γιώτα-Ρεπάνης Αντώνης - Γύφτικη διαθήκη [μουσ-στίχοι Α. Καλδάρας
TTITLE1=]
TTITLE2=Γαβαλάς Πάνος-Γκίκα Βούλα - Καλύτερα ανύπαντρος [μουσ-στίχοι Α. Καλδάρ
TTITLE2=ας]
TTITLE3=Αγγελόπουλος Μανώλης - Την πόρτα σου χτυπάω [μουσ-στίχοι Α. Καλδάρας]
TTITLE4=Λύδια Γιώτα - Όταν περάσει ο πόθος [Α. Καλδάρας-Ε. Παπαγιαννοπούλου]
TTITLE5=Διονυσίου Στράτος - Όχι πια χίλιες φορές [Α. Καλδάρας-Ε. Παπαγιαννοπού
TTITLE5=λου]
TTITLE6=Μενιδιάτης Μιχάλης - Ο γκρεμός [Α. Καλδάρας-Ε. Παπαγιαννοπούλου]
TTITLE7=Μοσχολιού Βίκυ-Καλδάρας Απόστολος - Είδα πολλές που κλάψανε [μουσ-στίχ
TTITLE7=οι Α. Καλδάρας]
TTITLE8=Αττακλής Φέφτζης - Καϋμένη μάνα [Α. Καλδάρας-Ε. Παπαγιαννοπούλου]
TTITLE9=Γαβαλάς Πάνος-Κούρτη Ρία - Τι με άλλη, τι με σένα [Α. Καλδάρας-Γ. Σαμο
TTITLE9=λαδάς]
TTITLE10=Σιναΐδης Θεοδώσης - Μυαλά δεν άλλαξες [μουσ-στίχοι Α. Καλδάρας]
TTITLE11=Μενιδιάτης Μιχάλης-Καλδάρας Απόστολος - Θέλεις με αγαπάς, θέλεις με μ
TTITLE11=ισείς [μουσ-στίχοι Α. Καλδάρας]
TTITLE12=Αμπάβη Καίτη - Σού τό 'πα κύριε [μουσ-στίχοι Α. Καλδάρας]
TTITLE13=Ροδά Ελένη - Πάλιωσε το αυτοκίνητο [Α. Καλδάρας-Γ. Σαμολαδάς]
TTITLE14=Άνευ ερμηνευτού - Χασαποσέρβικο [λαϊκή ορχήστρα, ορχ., μουσ. Α. Καλδά
TTITLE14=ρας]
TTITLE15=The Star's-Καλδάρας Απόστολος - Πες μας αρχηγέ [μουσ-στίχοι Α. Καλδάρ
TTITLE15=ας]
TTITLE16=Λύδια Γιώτα-Καλδάρας Απόστολος - Πέτρινη καρδιά [Α. Καλδάρας-Ε. Παπαγ
TTITLE16=ιαννοπούλου]
TTITLE17=Κόκοτας Σταμάτης - Ο ξεριζωμός [Α. Καλδάρας-Α. Καλδάρας/Ε. Παπαγιαννο
TTITLE17=πούλου]
TTITLE18=Χαλκιάς Λάκης - Τελευταίο σύνορο [Α. Καλδάρας-Γ. Σαμολαδάς]
TTITLE19=Χαλκιάς Λάκης - Τη βαρέθηκα τη νύχτα [μουσ-στίχοι Α. Καλδάρας]
EXTD=
EXTT0=
EXTT1=
EXTT2=
EXTT3=
EXTT4=
EXTT5=
EXTT6=
EXTT7=
EXTT8=
EXTT9=
EXTT10=
EXTT11=
EXTT12=
EXTT13=
EXTT14=
EXTT15=
EXTT16=
EXTT17=
EXTT18=
EXTT19=
PLAYORDER=
